<?xml version="1.0" encoding="utf-8"?>
<!-- Svg Vector Icons : http://www.onlinewebfonts.com/icon -->
<!DOCTYPE svg PUBLIC "-//W3C//DTD SVG 1.1//EN" "http://www.w3.org/Graphics/SVG/1.1/DTD/svg11.dtd">
<svg version="1.1" xmlns="http://www.w3.org/2000/svg" xmlns:xlink="http://www.w3.org/1999/xlink" x="0px" y="0px" viewBox="0 0 256 256" enable-background="new 0 0 256 256" xml:space="preserve">
<metadata> Svg Vector Icons : http://www.onlinewebfonts.com/icon </metadata>
<g><g><g><path fill="#000000" d="M119.4,10.1c-0.7,0.1-3.4,0.4-5.8,0.7C88.4,13.6,63.4,26,44.6,44.7c-18.4,18.4-29.7,41.1-33.8,67.5c-1.1,6.9-1.1,24.8,0,31.7c4.1,26.5,15.4,49.1,33.8,67.5c18.4,18.4,41.2,29.8,67.5,33.8c6.4,1,23.9,1.1,30.2,0.2c22.2-3.1,42.6-11.9,59.5-25.4c23.9-19.3,39.3-46.7,43.7-77.7c0.9-6.3,0.7-23.8-0.2-30.2c-4-26.3-15.4-49.2-33.8-67.5c-18.3-18.3-41.4-29.9-67.3-33.8C139.5,10.3,122.4,9.7,119.4,10.1z M141.6,19.1c48.1,5.9,86.4,42.3,94.5,89.8c6.1,35.9-5.1,71.7-30.3,97c-20.8,20.8-47.9,31.8-77.8,31.8c-19.6,0-36.9-4.4-53.2-13.4c-41.5-22.9-63.4-69.6-54.6-116.8C30,54.4,76.9,16.6,131,18.4C134.8,18.5,139.6,18.9,141.6,19.1z"/><path fill="#000000" d="M74.4,78.6c-2.2,2.2-1.8,5.4,1,6.7c1.2,0.6,7.8,0.7,52.7,0.7c44.9,0,51.5-0.1,52.7-0.7c2.7-1.4,3.1-4.5,1-6.7l-1.3-1.3H128H75.7L74.4,78.6z"/><path fill="#000000" d="M74.2,125.3c-0.7,0.8-1.2,2-1.2,2.7s0.5,1.9,1.2,2.7l1.2,1.4H128h52.6l1.2-1.4c1.5-1.8,1.5-3.6,0-5.5l-1.2-1.4H128H75.4L74.2,125.3z"/><path fill="#000000" d="M75.2,170.8c-2.6,1.4-3,4.5-0.9,6.7l1.3,1.3H128h52.3l1.3-1.3c2.2-2.2,1.8-5.4-1-6.7C178.7,169.8,77.1,169.8,75.2,170.8z"/></g></g></g>
</svg>